<?xml version="1.0" encoding="UTF-8" standalone="no"?>
<!-- Created with Inkscape (http://www.inkscape.org/) -->

<svg
   version="1.1"
   id="svg1"
   width="776"
   height="515"
   viewBox="0 0 776 515"
   sodipodi:docname="promar.svg"
   inkscape:version="1.3.2 (091e20e, 2023-11-25, custom)"
   inkscape:export-filename="promar-logo.svg"
   inkscape:export-xdpi="96"
   inkscape:export-ydpi="96"
   xmlns:inkscape="http://www.inkscape.org/namespaces/inkscape"
   xmlns:sodipodi="http://sodipodi.sourceforge.net/DTD/sodipodi-0.dtd"
   xmlns="http://www.w3.org/2000/svg"
   xmlns:svg="http://www.w3.org/2000/svg">
  <defs
     id="defs1" />
  <sodipodi:namedview
     id="namedview1"
     pagecolor="#ffffff"
     bordercolor="#000000"
     borderopacity="0.25"
     inkscape:showpageshadow="2"
     inkscape:pageopacity="0.0"
     inkscape:pagecheckerboard="0"
     inkscape:deskcolor="#d1d1d1"
     inkscape:zoom="0.97281553"
     inkscape:cx="222.5499"
     inkscape:cy="139.28643"
     inkscape:window-width="1366"
     inkscape:window-height="697"
     inkscape:window-x="-8"
     inkscape:window-y="-8"
     inkscape:window-maximized="1"
     inkscape:current-layer="layer2" />
  <g
     inkscape:groupmode="layer"
     id="layer3"
     inkscape:label="ola">
    <path
       style="fill:#31afe5;fill-opacity:1;stroke:#fdfdfd;stroke-width:2.3;stroke-linecap:round;stroke-linejoin:round;stroke-dasharray:none;stroke-dashoffset:0;stroke-opacity:1"
       d="m 238.77556,217.69644 c 0,0 -4.72463,-38.88735 46.15601,-58.51273 50.88064,-19.62539 91.58515,30.52838 91.58515,30.52838 0,0 -44.70227,-38.5239 -90.85828,-19.98881 -46.15601,18.53508 -46.88288,47.97316 -46.88288,47.97316 z"
       id="path3"
       sodipodi:nodetypes="cscsc" />
    <path
       style="display:inline;fill:#31afe5;fill-opacity:1;stroke:#fdfdfd;stroke-width:2.3;stroke-linecap:round;stroke-linejoin:round;stroke-dasharray:none;stroke-dashoffset:0;stroke-opacity:1;paint-order:normal"
       d="m 248.22483,270.39425 c 0,0 -37.79705,-82.49932 71.23289,-99.58068 0,0 -61.05676,19.26195 -60.3299,51.6075 0,0 17.44479,-33.79928 45.06571,-37.79704 0,0 -33.07242,15.99106 -33.07242,44.70227 0,0 9.44926,-29.80151 30.89182,-35.61644 0,0 -30.52838,26.16718 -8.7224,53.06123 21.80599,26.89406 58.51274,26.16719 58.51274,26.16719 0,0 -11.9933,6.17836 -37.07018,-2.1806 0,0 12.72016,16.35449 50.5172,15.62762 0,0 -66.14483,12.35673 -88.31425,-29.43808 0,0 -4.36119,23.98659 42.52168,47.97317 0,0 -55.24184,-15.26419 -61.05677,-54.8784 0,0 -9.08582,-1.45373 0.72687,22.53286 0,0 -13.44703,-12.35673 -10.90299,-26.89406 0,0 -5.81493,10.903 0,24.71346 z"
       id="path4"
       sodipodi:nodetypes="ccc" />
    <path
       style="fill:#a499a2;fill-opacity:1;stroke:#fdfdfd;stroke-width:2.3;stroke-linecap:round;stroke-linejoin:round;stroke-dasharray:none;stroke-dashoffset:0;stroke-opacity:1;paint-order:normal"
       d="m 322.00175,201.70539 c 0,0 31.8004,0.54515 31.43696,39.06907 0,0 11.81158,-30.34667 -7.81381,-45.42915 0,0 14.71904,0.54515 21.44256,25.98547 0,0 5.63321,-19.8071 -9.44927,-28.89293 0,0 6.72352,0.36343 15.99106,13.99217 0,0 -5.81493,-32.89069 -46.156,-25.62203 0,0 18.35337,1.45373 10.17612,6.17836 0,0 -4.17948,-5.99664 -12.90187,-1.45373 0,0 11.99329,4.90635 13.81046,9.63098 0,0 -7.99553,-3.63433 -13.44703,-1.99888 0,0 10.53956,3.08918 10.17613,7.99552 0,0 -8.72239,-3.2709 -13.26531,0.54515 z"
       id="path5" />
  </g>
  <g
     inkscape:groupmode="layer"
     id="layer2"
     inkscape:label="Logo Nuevo "
     style="display:inline"
     sodipodi:insensitive="true">
    <path
       d="M 38.144235,332.57232 H 58.383521 V 230.42651 c 0,-23.0506 15.061795,-37.9657 36.007102,-37.9657 20.945307,0 36.477787,15.14109 36.477787,37.28774 0,22.59863 -15.76782,38.19169 -37.183808,38.19169 -9.648962,0 -19.062584,-3.16381 -28.476205,-9.9434 v 20.79074 c 9.178281,4.9717 19.297924,7.45755 30.59427,7.45755 15.061793,0 29.888253,-6.10163 40.243233,-17.17496 9.8843,-10.39537 15.29713,-24.18054 15.29713,-38.86965 0,-32.768 -24.00473,-56.04459 -56.481725,-56.04459 -22.122011,0 -41.184595,11.07332 -50.598216,29.37822 -5.648173,11.07332 -6.118854,22.37264 -6.118854,35.47984 z M 172.05306,284.43723 h 20.23928 v -51.07289 c 0,-28.24829 11.29635,-40.45155 39.30187,-40.45155 h 3.05943 v -18.75686 h -5.17749 c -19.53327,0 -31.53563,4.74571 -38.83119,18.0789 V 176.1898 h -18.5919 z m 212.86355,0 h 20.00395 v -66.21397 c 0,-15.36707 10.11964,-25.31047 24.47541,-25.31047 14.35578,0 24.71076,9.9434 24.71076,25.31047 v 66.21397 h 20.00394 v -66.21397 c 0,-15.36707 10.11965,-25.31047 24.47542,-25.31047 14.35577,0 24.47542,9.9434 24.47542,25.31047 v 66.21397 h 20.00394 v -62.5982 c 0,-30.28216 -18.35656,-47.6831 -44.47936,-47.6831 -13.88509,0 -25.65212,5.64966 -34.59506,16.72298 -8.47226,-10.84734 -20.47463,-16.72298 -34.59506,-16.72298 -26.12279,0 -44.47936,17.17495 -44.47936,47.6831 z m 270.64171,0 h 20.23928 v -45.42324 c 0,-13.1072 -0.23533,-24.40652 -6.11884,-35.47984 -9.64897,-18.3049 -28.71156,-29.37822 -50.36289,-29.37822 -32.47699,0 -56.48172,23.27659 -56.48172,56.04459 0,19.43483 8.70759,36.15781 24.9461,47.00516 8.47225,5.64965 19.53326,9.03945 30.35892,9.03945 11.29635,0 21.41599,-2.48585 30.59427,-7.45755 v -20.79074 c -9.41362,6.77959 -18.5919,9.9434 -28.24086,9.9434 -21.41599,0 -37.18381,-15.59306 -37.18381,-38.19169 0,-22.14665 15.29713,-37.28774 36.24245,-37.28774 20.9453,0 36.0071,14.9151 36.0071,37.9657 z m 35.89148,0 h 20.23928 v -51.07289 c 0,-28.24829 11.29635,-40.45155 39.30187,-40.45155 h 3.05943 v -18.75686 h -5.17749 c -19.53327,0 -31.53563,4.74571 -38.83119,18.0789 V 176.1898 h -18.5919 z"
       id="text1"
       style="font-size:230.616px;font-family:'ITC Bauhaus';-inkscape-font-specification:'ITC Bauhaus, Normal';fill:#31afe5;fill-opacity:1;stroke:#fdfdfd;stroke-width:1.85178"
       aria-label="promar"
       sodipodi:nodetypes="ccssssccscsscscccssccsccccccsssccsssccsscsscccscsscsccsssscccssccscccccc" />
  </g>
</svg>
